<?xml version="1.0" standalone="no"?>
<!DOCTYPE svg PUBLIC "-//W3C//DTD SVG 20010904//EN"
 "http://www.w3.org/TR/2001/REC-SVG-20010904/DTD/svg10.dtd">
<svg version="1.0" xmlns="http://www.w3.org/2000/svg"
 width="375.000000pt" height="375.000000pt" viewBox="0 0 375.000000 375.000000"
 preserveAspectRatio="xMidYMid meet">

<g transform="translate(0.000000,375.000000) scale(0.100000,-0.100000)"
fill="#000000" stroke="none">
<path d="M1585 3743 c-11 -2 -56 -11 -100 -19 -116 -22 -331 -97 -455 -159
-514 -258 -885 -739 -1007 -1305 -27 -125 -27 -645 0 -770 141 -657 617 -1192
1247 -1404 229 -76 263 -81 605 -81 337 0 371 4 592 76 564 183 1018 637 1201
1201 73 222 77 256 77 593 0 337 -4 371 -76 592 -192 591 -675 1054 -1281
1227 -167 48 -243 56 -523 55 -143 -1 -269 -3 -280 -6z"/>
</g>
</svg>
